# xmcd
#
# Track frame offsets: 
#        150
#        57052
#        112013
#        141049
#        188286
#        245738
#
# Disc length: 4395 seconds
#
# Revision: 0
# Processed by: cddbd v1.5.2PL0 Copyright (c) Steve Scherf et al.
# Submitted via: ExactAudioCopyFreeDBPlugin 1.0
#
DISCID=4b112906
DTITLE=London Philharmonic Orchestra - Symphonies Nos. 1-4, Variations
DTITLE=on a Theme by Haydn, Tragic Overture
DYEAR=2007
DGENRE=Classical
TTITLE0=Symphony No. 4 in E minor, Op. 98: I. Allegro non troppo
TTITLE1=Symphony No. 4 in E minor, Op. 98: II. Andante moderato
TTITLE2=Symphony No. 4 in E minor, Op. 98: III. Allegro giocoso
TTITLE3=Symphony No. 4 in E minor, Op. 98: IV. Allegro energico e pass
TTITLE3=ionato
TTITLE4=Tragic Overture, Op. 81
TTITLE5=Variations on Joseph Haydn: St. Anthony Chorale for Orchestra 
TTITLE5=in B-flat major, Op. 56a
EXTD=\n
EXTT0=
EXTT1=
EXTT2=
EXTT3=
EXTT4=
EXTT5=
PLAYORDER=
